<mxfile host="app.diagrams.net" modified="2024-03-19T13:51:57.095Z" agent="Mozilla/5.0 (Windows NT 10.0; Win64; x64) AppleWebKit/537.36 (KHTML, like Gecko) Chrome/122.0.0.0 Safari/537.36 Edg/122.0.0.0" etag="Gu1kvIa7SWh6x2fsGNYE" version="24.0.6" type="github">
  <diagram id="C5RBs43oDa-KdzZeNtuy" name="Page-1">
    <mxGraphModel dx="1002" dy="543" grid="1" gridSize="10" guides="1" tooltips="1" connect="1" arrows="1" fold="1" page="1" pageScale="1" pageWidth="827" pageHeight="1169" math="0" shadow="0">
      <root>
        <mxCell id="WIyWlLk6GJQsqaUBKTNV-0" />
        <mxCell id="WIyWlLk6GJQsqaUBKTNV-1" parent="WIyWlLk6GJQsqaUBKTNV-0" />
        <mxCell id="WIyWlLk6GJQsqaUBKTNV-3" value="yp" style="rounded=1;whiteSpace=wrap;html=1;fontSize=12;glass=0;strokeWidth=1;shadow=0;" parent="WIyWlLk6GJQsqaUBKTNV-1" vertex="1">
          <mxGeometry x="70" y="10" width="120" height="40" as="geometry" />
        </mxCell>
        <mxCell id="gJZQAjhXuOZmVErfDtZo-1" value="" style="rounded=0;html=1;jettySize=auto;orthogonalLoop=1;fontSize=11;endArrow=block;endFill=0;endSize=8;strokeWidth=1;shadow=0;labelBackgroundColor=none;edgeStyle=orthogonalEdgeStyle;" edge="1" parent="WIyWlLk6GJQsqaUBKTNV-1" source="WIyWlLk6GJQsqaUBKTNV-3" target="gJZQAjhXuOZmVErfDtZo-0">
          <mxGeometry relative="1" as="geometry">
            <mxPoint x="150" y="60" as="sourcePoint" />
            <mxPoint x="220" y="170" as="targetPoint" />
          </mxGeometry>
        </mxCell>
        <mxCell id="gJZQAjhXuOZmVErfDtZo-3" value="" style="edgeStyle=orthogonalEdgeStyle;rounded=0;orthogonalLoop=1;jettySize=auto;html=1;" edge="1" parent="WIyWlLk6GJQsqaUBKTNV-1" source="gJZQAjhXuOZmVErfDtZo-0" target="gJZQAjhXuOZmVErfDtZo-2">
          <mxGeometry relative="1" as="geometry" />
        </mxCell>
        <mxCell id="gJZQAjhXuOZmVErfDtZo-12" value="" style="edgeStyle=orthogonalEdgeStyle;rounded=0;orthogonalLoop=1;jettySize=auto;html=1;" edge="1" parent="WIyWlLk6GJQsqaUBKTNV-1" source="gJZQAjhXuOZmVErfDtZo-0" target="gJZQAjhXuOZmVErfDtZo-10">
          <mxGeometry relative="1" as="geometry" />
        </mxCell>
        <mxCell id="gJZQAjhXuOZmVErfDtZo-0" value="ls信道估计---&amp;gt;hp,ls" style="rounded=0;whiteSpace=wrap;html=1;" vertex="1" parent="WIyWlLk6GJQsqaUBKTNV-1">
          <mxGeometry x="70" y="80" width="120" height="60" as="geometry" />
        </mxCell>
        <mxCell id="gJZQAjhXuOZmVErfDtZo-5" value="" style="edgeStyle=orthogonalEdgeStyle;rounded=0;orthogonalLoop=1;jettySize=auto;html=1;" edge="1" parent="WIyWlLk6GJQsqaUBKTNV-1" source="gJZQAjhXuOZmVErfDtZo-2" target="gJZQAjhXuOZmVErfDtZo-4">
          <mxGeometry relative="1" as="geometry" />
        </mxCell>
        <mxCell id="gJZQAjhXuOZmVErfDtZo-2" value="在数据子载波插入0---&amp;gt;hf,ls" style="rounded=0;whiteSpace=wrap;html=1;" vertex="1" parent="WIyWlLk6GJQsqaUBKTNV-1">
          <mxGeometry x="70" y="160" width="120" height="60" as="geometry" />
        </mxCell>
        <mxCell id="gJZQAjhXuOZmVErfDtZo-4" value="插值器c" style="rounded=0;whiteSpace=wrap;html=1;" vertex="1" parent="WIyWlLk6GJQsqaUBKTNV-1">
          <mxGeometry x="70" y="300" width="120" height="60" as="geometry" />
        </mxCell>
        <mxCell id="gJZQAjhXuOZmVErfDtZo-7" value="" style="edgeStyle=orthogonalEdgeStyle;rounded=0;orthogonalLoop=1;jettySize=auto;html=1;" edge="1" parent="WIyWlLk6GJQsqaUBKTNV-1" source="gJZQAjhXuOZmVErfDtZo-6" target="gJZQAjhXuOZmVErfDtZo-4">
          <mxGeometry relative="1" as="geometry" />
        </mxCell>
        <mxCell id="gJZQAjhXuOZmVErfDtZo-6" value="插值器参数c0，c1，....cN-1" style="rounded=0;whiteSpace=wrap;html=1;" vertex="1" parent="WIyWlLk6GJQsqaUBKTNV-1">
          <mxGeometry x="380" y="300" width="120" height="60" as="geometry" />
        </mxCell>
        <mxCell id="gJZQAjhXuOZmVErfDtZo-9" value="" style="edgeStyle=orthogonalEdgeStyle;rounded=0;orthogonalLoop=1;jettySize=auto;html=1;exitX=0.5;exitY=1;exitDx=0;exitDy=0;entryX=1;entryY=0.5;entryDx=0;entryDy=0;" edge="1" parent="WIyWlLk6GJQsqaUBKTNV-1" source="gJZQAjhXuOZmVErfDtZo-8" target="gJZQAjhXuOZmVErfDtZo-6">
          <mxGeometry relative="1" as="geometry">
            <mxPoint x="730" y="260" as="sourcePoint" />
            <mxPoint x="500" y="290" as="targetPoint" />
            <Array as="points">
              <mxPoint x="730" y="330" />
            </Array>
          </mxGeometry>
        </mxCell>
        <mxCell id="gJZQAjhXuOZmVErfDtZo-8" value="MMSE信道估计" style="rounded=0;whiteSpace=wrap;html=1;" vertex="1" parent="WIyWlLk6GJQsqaUBKTNV-1">
          <mxGeometry x="670" y="200" width="120" height="60" as="geometry" />
        </mxCell>
        <mxCell id="gJZQAjhXuOZmVErfDtZo-14" value="" style="edgeStyle=orthogonalEdgeStyle;rounded=0;orthogonalLoop=1;jettySize=auto;html=1;" edge="1" parent="WIyWlLk6GJQsqaUBKTNV-1" source="gJZQAjhXuOZmVErfDtZo-18" target="gJZQAjhXuOZmVErfDtZo-13">
          <mxGeometry relative="1" as="geometry" />
        </mxCell>
        <mxCell id="gJZQAjhXuOZmVErfDtZo-10" value="对hp,ls求IFFT得到hls(t)" style="rounded=0;whiteSpace=wrap;html=1;" vertex="1" parent="WIyWlLk6GJQsqaUBKTNV-1">
          <mxGeometry x="220" y="80" width="120" height="60" as="geometry" />
        </mxCell>
        <mxCell id="gJZQAjhXuOZmVErfDtZo-16" value="" style="edgeStyle=orthogonalEdgeStyle;rounded=0;orthogonalLoop=1;jettySize=auto;html=1;" edge="1" parent="WIyWlLk6GJQsqaUBKTNV-1" source="gJZQAjhXuOZmVErfDtZo-13" target="gJZQAjhXuOZmVErfDtZo-15">
          <mxGeometry relative="1" as="geometry" />
        </mxCell>
        <mxCell id="gJZQAjhXuOZmVErfDtZo-13" value="利用hdft(t)计算时延拓展τ" style="rounded=0;whiteSpace=wrap;html=1;" vertex="1" parent="WIyWlLk6GJQsqaUBKTNV-1">
          <mxGeometry x="524" y="80" width="120" height="60" as="geometry" />
        </mxCell>
        <mxCell id="gJZQAjhXuOZmVErfDtZo-17" value="" style="edgeStyle=orthogonalEdgeStyle;rounded=0;orthogonalLoop=1;jettySize=auto;html=1;" edge="1" parent="WIyWlLk6GJQsqaUBKTNV-1" source="gJZQAjhXuOZmVErfDtZo-15" target="gJZQAjhXuOZmVErfDtZo-8">
          <mxGeometry relative="1" as="geometry" />
        </mxCell>
        <mxCell id="gJZQAjhXuOZmVErfDtZo-15" value="用时延拓展τ求相关阵Rf" style="whiteSpace=wrap;html=1;rounded=0;" vertex="1" parent="WIyWlLk6GJQsqaUBKTNV-1">
          <mxGeometry x="670" y="80" width="120" height="60" as="geometry" />
        </mxCell>
        <mxCell id="gJZQAjhXuOZmVErfDtZo-19" value="" style="edgeStyle=orthogonalEdgeStyle;rounded=0;orthogonalLoop=1;jettySize=auto;html=1;" edge="1" parent="WIyWlLk6GJQsqaUBKTNV-1" source="gJZQAjhXuOZmVErfDtZo-10" target="gJZQAjhXuOZmVErfDtZo-18">
          <mxGeometry relative="1" as="geometry">
            <mxPoint x="340" y="110" as="sourcePoint" />
            <mxPoint x="524" y="110" as="targetPoint" />
          </mxGeometry>
        </mxCell>
        <mxCell id="gJZQAjhXuOZmVErfDtZo-21" value="" style="edgeStyle=orthogonalEdgeStyle;rounded=0;orthogonalLoop=1;jettySize=auto;html=1;" edge="1" parent="WIyWlLk6GJQsqaUBKTNV-1" source="gJZQAjhXuOZmVErfDtZo-18" target="gJZQAjhXuOZmVErfDtZo-20">
          <mxGeometry relative="1" as="geometry" />
        </mxCell>
        <mxCell id="gJZQAjhXuOZmVErfDtZo-18" value="对hls(t)去噪得到hdft(t)" style="rounded=0;whiteSpace=wrap;html=1;" vertex="1" parent="WIyWlLk6GJQsqaUBKTNV-1">
          <mxGeometry x="380" y="80" width="120" height="60" as="geometry" />
        </mxCell>
        <mxCell id="gJZQAjhXuOZmVErfDtZo-22" value="" style="edgeStyle=orthogonalEdgeStyle;rounded=0;orthogonalLoop=1;jettySize=auto;html=1;" edge="1" parent="WIyWlLk6GJQsqaUBKTNV-1" source="gJZQAjhXuOZmVErfDtZo-20" target="gJZQAjhXuOZmVErfDtZo-6">
          <mxGeometry relative="1" as="geometry" />
        </mxCell>
        <mxCell id="gJZQAjhXuOZmVErfDtZo-20" value="对hdft(t)求FFT变换得到Hf,dft" style="whiteSpace=wrap;html=1;rounded=0;" vertex="1" parent="WIyWlLk6GJQsqaUBKTNV-1">
          <mxGeometry x="380" y="170" width="120" height="60" as="geometry" />
        </mxCell>
        <mxCell id="gJZQAjhXuOZmVErfDtZo-23" value="PDP分布" style="rounded=1;whiteSpace=wrap;html=1;fontSize=12;glass=0;strokeWidth=1;shadow=0;" vertex="1" parent="WIyWlLk6GJQsqaUBKTNV-1">
          <mxGeometry x="580" y="370" width="120" height="40" as="geometry" />
        </mxCell>
      </root>
    </mxGraphModel>
  </diagram>
</mxfile>
